<svg xmlns="http://www.w3.org/2000/svg" viewBox="0 0 1280 640" fill="none">
  <defs>
    <linearGradient id="bg" x1="0%" y1="0%" x2="100%" y2="100%">
      <stop offset="0%" stop-color="#0d1117"/>
      <stop offset="50%" stop-color="#161b22"/>
      <stop offset="100%" stop-color="#0d1117"/>
    </linearGradient>
    <linearGradient id="claw" x1="0%" y1="0%" x2="100%" y2="100%">
      <stop offset="0%" stop-color="#58a6ff"/>
      <stop offset="50%" stop-color="#bc8cff"/>
      <stop offset="100%" stop-color="#f778ba"/>
    </linearGradient>
    <linearGradient id="glow" x1="0%" y1="0%" x2="100%" y2="100%">
      <stop offset="0%" stop-color="#58a6ff" stop-opacity="0.3"/>
      <stop offset="100%" stop-color="#bc8cff" stop-opacity="0"/>
    </linearGradient>
    <filter id="blur">
      <feGaussianBlur in="SourceGraphic" stdDeviation="40"/>
    </filter>
    <filter id="softglow">
      <feGaussianBlur in="SourceGraphic" stdDeviation="2"/>
    </filter>
  </defs>

  <!-- Background -->
  <rect width="1280" height="640" fill="url(#bg)"/>

  <!-- Ambient glow circles -->
  <circle cx="640" cy="320" r="300" fill="url(#glow)" filter="url(#blur)"/>
  <circle cx="400" cy="250" r="150" fill="#58a6ff" opacity="0.05" filter="url(#blur)"/>
  <circle cx="880" cy="380" r="150" fill="#f778ba" opacity="0.05" filter="url(#blur)"/>

  <!-- Grid pattern (subtle) -->
  <g stroke="#30363d" stroke-width="0.5" opacity="0.3">
    <line x1="0" y1="160" x2="1280" y2="160"/>
    <line x1="0" y1="320" x2="1280" y2="320"/>
    <line x1="0" y1="480" x2="1280" y2="480"/>
    <line x1="320" y1="0" x2="320" y2="640"/>
    <line x1="640" y1="0" x2="640" y2="640"/>
    <line x1="960" y1="0" x2="960" y2="640"/>
  </g>

  <!-- Claw icon (three talon marks) -->
  <g transform="translate(490, 160)" stroke="url(#claw)" stroke-width="6" stroke-linecap="round" fill="none" opacity="0.9">
    <!-- Left talon -->
    <path d="M 80 0 Q 60 60 40 120 Q 30 150 50 170"/>
    <!-- Center talon -->
    <path d="M 150 0 Q 148 70 145 130 Q 143 160 155 175"/>
    <!-- Right talon -->
    <path d="M 220 0 Q 240 60 260 120 Q 270 150 250 170"/>
  </g>

  <!-- Glow behind talons -->
  <g transform="translate(490, 160)" stroke="url(#claw)" stroke-width="12" stroke-linecap="round" fill="none" opacity="0.15" filter="url(#softglow)">
    <path d="M 80 0 Q 60 60 40 120 Q 30 150 50 170"/>
    <path d="M 150 0 Q 148 70 145 130 Q 143 160 155 175"/>
    <path d="M 220 0 Q 240 60 260 120 Q 270 150 250 170"/>
  </g>

  <!-- Title -->
  <text x="640" y="410" text-anchor="middle" font-family="system-ui, -apple-system, 'Segoe UI', sans-serif" font-size="72" font-weight="800" fill="white" letter-spacing="-2">
    LiteClaw
  </text>

  <!-- Subtitle -->
  <text x="640" y="460" text-anchor="middle" font-family="system-ui, -apple-system, 'Segoe UI', sans-serif" font-size="22" fill="#8b949e" font-weight="400" letter-spacing="1">
    Lightweight, secure, multi-agent AI runtime
  </text>

  <!-- Feature badges -->
  <g transform="translate(640, 505)" text-anchor="middle" font-family="'SF Mono', 'Cascadia Code', 'Fira Code', monospace" font-size="13" font-weight="500">
    <!-- Badge 1 -->
    <g transform="translate(-360, 0)">
      <rect x="-55" y="-14" width="110" height="28" rx="14" fill="#58a6ff" opacity="0.15"/>
      <text fill="#58a6ff" y="5">18MB binary</text>
    </g>
    <!-- Badge 2 -->
    <g transform="translate(-200, 0)">
      <rect x="-60" y="-14" width="120" height="28" rx="14" fill="#bc8cff" opacity="0.15"/>
      <text fill="#bc8cff" y="5">6 chat adapters</text>
    </g>
    <!-- Badge 3 -->
    <g transform="translate(-30, 0)">
      <rect x="-65" y="-14" width="130" height="28" rx="14" fill="#f778ba" opacity="0.15"/>
      <text fill="#f778ba" y="5">3 LLM providers</text>
    </g>
    <!-- Badge 4 -->
    <g transform="translate(150, 0)">
      <rect x="-50" y="-14" width="100" height="28" rx="14" fill="#3fb950" opacity="0.15"/>
      <text fill="#3fb950" y="5">MCP client</text>
    </g>
    <!-- Badge 5 -->
    <g transform="translate(310, 0)">
      <rect x="-60" y="-14" width="120" height="28" rx="14" fill="#d29922" opacity="0.15"/>
      <text fill="#d29922" y="5">4 agent patterns</text>
    </g>
  </g>

  <!-- Terminal preview -->
  <g transform="translate(340, 545)">
    <rect width="600" height="60" rx="8" fill="#161b22" stroke="#30363d" stroke-width="1"/>
    <!-- Terminal dots -->
    <circle cx="20" cy="16" r="5" fill="#f85149"/>
    <circle cx="38" cy="16" r="5" fill="#d29922"/>
    <circle cx="56" cy="16" r="5" fill="#3fb950"/>
    <!-- Terminal text -->
    <text x="20" y="45" font-family="'SF Mono', 'Cascadia Code', 'Fira Code', monospace" font-size="14">
      <tspan fill="#8b949e">$</tspan>
      <tspan fill="#e6edf3"> go install github.com/marsstein/liteclaw/cmd/liteclaw@latest</tspan>
    </text>
  </g>
</svg>
